# xmcd CD database file
#
# Track frame offsets:
#	150
#	13762
#	30600
#	46225
#	62125
#	86412
#	98175
#	114725
#	129150
#	141350
#	154737
#	175612
#	191325
#	207645
#
# Disc length: 2958 seconds
#
# Revision: 2
# Processed by: cddbd v1.5.2PL0 Copyright (c) Steve Scherf et al.
# Submitted via: CDex 1.70beta2
#
DISCID=ba0b8c0e
DTITLE=猫 - 猫 - BEST,THE
DYEAR=1990
DGENRE=
TTITLE0=雪
TTITLE1=地下鉄にのって
TTITLE2=戻ってきた恋人
TTITLE3=昼下りの街
TTITLE4=飛行場
TTITLE5=コスモス
TTITLE6=各駅停車
TTITLE7=バラ色の切符
TTITLE8=いけない子供
TTITLE9=君の心はおもちゃ箱
TTITLE10=小さな店で
TTITLE11=花屋のある通り
TTITLE12=僕のエピローグ
TTITLE13=雪
EXTD=YEAR: 1990
EXTT0=
EXTT1=
EXTT2=
EXTT3=
EXTT4=
EXTT5=
EXTT6=
EXTT7=
EXTT8=
EXTT9=
EXTT10=
EXTT11=
EXTT12=
EXTT13=
PLAYORDER=
